%TF.GenerationSoftware,KiCad,Pcbnew,6.0.4*%
%TF.CreationDate,2022-04-30T16:21:21-07:00*%
%TF.ProjectId,pcb,7063622e-6b69-4636-9164-5f7063625858,rev?*%
%TF.SameCoordinates,Original*%
%TF.FileFunction,Paste,Top*%
%TF.FilePolarity,Positive*%
%FSLAX46Y46*%
G04 Gerber Fmt 4.6, Leading zero omitted, Abs format (unit mm)*
G04 Created by KiCad (PCBNEW 6.0.4) date 2022-04-30 16:21:21*
%MOMM*%
%LPD*%
G01*
G04 APERTURE LIST*
G04 Aperture macros list*
%AMRoundRect*
0 Rectangle with rounded corners*
0 $1 Rounding radius*
0 $2 $3 $4 $5 $6 $7 $8 $9 X,Y pos of 4 corners*
0 Add a 4 corners polygon primitive as box body*
4,1,4,$2,$3,$4,$5,$6,$7,$8,$9,$2,$3,0*
0 Add four circle primitives for the rounded corners*
1,1,$1+$1,$2,$3*
1,1,$1+$1,$4,$5*
1,1,$1+$1,$6,$7*
1,1,$1+$1,$8,$9*
0 Add four rect primitives between the rounded corners*
20,1,$1+$1,$2,$3,$4,$5,0*
20,1,$1+$1,$4,$5,$6,$7,0*
20,1,$1+$1,$6,$7,$8,$9,0*
20,1,$1+$1,$8,$9,$2,$3,0*%
G04 Aperture macros list end*
%ADD10RoundRect,0.250000X1.550000X-1.185000X1.550000X1.185000X-1.550000X1.185000X-1.550000X-1.185000X0*%
%ADD11RoundRect,0.150000X0.150000X-0.850000X0.150000X0.850000X-0.150000X0.850000X-0.150000X-0.850000X0*%
%ADD12RoundRect,0.250000X-0.350000X-0.450000X0.350000X-0.450000X0.350000X0.450000X-0.350000X0.450000X0*%
%ADD13RoundRect,0.250000X-0.450000X0.350000X-0.450000X-0.350000X0.450000X-0.350000X0.450000X0.350000X0*%
%ADD14RoundRect,0.150000X-0.625000X0.150000X-0.625000X-0.150000X0.625000X-0.150000X0.625000X0.150000X0*%
%ADD15RoundRect,0.250000X-0.650000X0.350000X-0.650000X-0.350000X0.650000X-0.350000X0.650000X0.350000X0*%
%ADD16RoundRect,0.250000X0.337500X0.475000X-0.337500X0.475000X-0.337500X-0.475000X0.337500X-0.475000X0*%
%ADD17RoundRect,0.150000X0.625000X-0.150000X0.625000X0.150000X-0.625000X0.150000X-0.625000X-0.150000X0*%
%ADD18RoundRect,0.250000X0.650000X-0.350000X0.650000X0.350000X-0.650000X0.350000X-0.650000X-0.350000X0*%
G04 APERTURE END LIST*
D10*
%TO.C,U1*%
X172000000Y-109000000D03*
D11*
X166285000Y-113675000D03*
X167555000Y-113675000D03*
X168825000Y-113675000D03*
X170095000Y-113675000D03*
X171365000Y-113675000D03*
X172635000Y-113675000D03*
X173905000Y-113675000D03*
X175175000Y-113675000D03*
X176445000Y-113675000D03*
X177715000Y-113675000D03*
X177715000Y-104325000D03*
X176445000Y-104325000D03*
X175175000Y-104325000D03*
X173905000Y-104325000D03*
X172635000Y-104325000D03*
X171365000Y-104325000D03*
X170095000Y-104325000D03*
X168825000Y-104325000D03*
X167555000Y-104325000D03*
X166285000Y-104325000D03*
%TD*%
D12*
%TO.C,R14*%
X182000000Y-110646666D03*
X184000000Y-110646666D03*
%TD*%
D13*
%TO.C,R4*%
X143181822Y-109000000D03*
X143181822Y-111000000D03*
%TD*%
D14*
%TO.C,J1*%
X129000000Y-107500000D03*
X129000000Y-108500000D03*
X129000000Y-109500000D03*
X129000000Y-110500000D03*
D15*
X125125000Y-111800000D03*
X125125000Y-106200000D03*
%TD*%
D16*
%TO.C,C0*%
X184000000Y-114000000D03*
X181925000Y-114000000D03*
%TD*%
D13*
%TO.C,R1*%
X135545460Y-109000000D03*
X135545460Y-111000000D03*
%TD*%
%TO.C,R8*%
X153363638Y-109000000D03*
X153363638Y-111000000D03*
%TD*%
D17*
%TO.C,J0*%
X189000000Y-110500000D03*
X189000000Y-109500000D03*
X189000000Y-108500000D03*
X189000000Y-107500000D03*
D18*
X192875000Y-106200000D03*
X192875000Y-111800000D03*
%TD*%
D13*
%TO.C,R9*%
X155909092Y-109000000D03*
X155909092Y-111000000D03*
%TD*%
D12*
%TO.C,R13*%
X182000000Y-107323333D03*
X184000000Y-107323333D03*
%TD*%
%TO.C,R12*%
X182000000Y-104000000D03*
X184000000Y-104000000D03*
%TD*%
D13*
%TO.C,R6*%
X148272730Y-109000000D03*
X148272730Y-111000000D03*
%TD*%
%TO.C,R5*%
X145727276Y-109000000D03*
X145727276Y-111000000D03*
%TD*%
%TO.C,R7*%
X150818184Y-109000000D03*
X150818184Y-111000000D03*
%TD*%
%TO.C,R10*%
X158454546Y-109000000D03*
X158454546Y-111000000D03*
%TD*%
%TO.C,R2*%
X138090914Y-109000000D03*
X138090914Y-111000000D03*
%TD*%
%TO.C,R3*%
X140636368Y-109000000D03*
X140636368Y-111000000D03*
%TD*%
%TO.C,R11*%
X161000000Y-109000000D03*
X161000000Y-111000000D03*
%TD*%
%TO.C,R0*%
X133000000Y-109000000D03*
X133000000Y-111000000D03*
%TD*%
M02*
