%TF.GenerationSoftware,KiCad,Pcbnew,6.0.4*%
%TF.CreationDate,2022-04-30T16:21:22-07:00*%
%TF.ProjectId,pcb,7063622e-6b69-4636-9164-5f7063625858,rev?*%
%TF.SameCoordinates,Original*%
%TF.FileFunction,Legend,Top*%
%TF.FilePolarity,Positive*%
%FSLAX46Y46*%
G04 Gerber Fmt 4.6, Leading zero omitted, Abs format (unit mm)*
G04 Created by KiCad (PCBNEW 6.0.4) date 2022-04-30 16:21:22*
%MOMM*%
%LPD*%
G01*
G04 APERTURE LIST*
%ADD10C,0.150000*%
%ADD11C,0.120000*%
G04 APERTURE END LIST*
D10*
%TO.C,J2*%
X130262380Y-104333333D02*
X130976666Y-104333333D01*
X131119523Y-104380952D01*
X131214761Y-104476190D01*
X131262380Y-104619047D01*
X131262380Y-104714285D01*
X130357619Y-103904761D02*
X130310000Y-103857142D01*
X130262380Y-103761904D01*
X130262380Y-103523809D01*
X130310000Y-103428571D01*
X130357619Y-103380952D01*
X130452857Y-103333333D01*
X130548095Y-103333333D01*
X130690952Y-103380952D01*
X131262380Y-103952380D01*
X131262380Y-103333333D01*
%TO.C,U1*%
X164092380Y-106761904D02*
X164901904Y-106761904D01*
X164997142Y-106714285D01*
X165044761Y-106666666D01*
X165092380Y-106571428D01*
X165092380Y-106380952D01*
X165044761Y-106285714D01*
X164997142Y-106238095D01*
X164901904Y-106190476D01*
X164092380Y-106190476D01*
X165092380Y-105190476D02*
X165092380Y-105761904D01*
X165092380Y-105476190D02*
X164092380Y-105476190D01*
X164235238Y-105571428D01*
X164330476Y-105666666D01*
X164378095Y-105761904D01*
%TO.C,R14*%
X185357142Y-111834046D02*
X185023809Y-111357856D01*
X184785714Y-111834046D02*
X184785714Y-110834046D01*
X185166666Y-110834046D01*
X185261904Y-110881666D01*
X185309523Y-110929285D01*
X185357142Y-111024523D01*
X185357142Y-111167380D01*
X185309523Y-111262618D01*
X185261904Y-111310237D01*
X185166666Y-111357856D01*
X184785714Y-111357856D01*
X186309523Y-111834046D02*
X185738095Y-111834046D01*
X186023809Y-111834046D02*
X186023809Y-110834046D01*
X185928571Y-110976904D01*
X185833333Y-111072142D01*
X185738095Y-111119761D01*
X187166666Y-111167380D02*
X187166666Y-111834046D01*
X186928571Y-110786427D02*
X186690476Y-111500713D01*
X187309523Y-111500713D01*
%TO.C,R4*%
X143634202Y-113166666D02*
X143158012Y-113500000D01*
X143634202Y-113738095D02*
X142634202Y-113738095D01*
X142634202Y-113357142D01*
X142681822Y-113261904D01*
X142729441Y-113214285D01*
X142824679Y-113166666D01*
X142967536Y-113166666D01*
X143062774Y-113214285D01*
X143110393Y-113261904D01*
X143158012Y-113357142D01*
X143158012Y-113738095D01*
X142967536Y-112309523D02*
X143634202Y-112309523D01*
X142586583Y-112547619D02*
X143300869Y-112785714D01*
X143300869Y-112166666D01*
%TO.C,J1*%
X124452380Y-104333333D02*
X125166666Y-104333333D01*
X125309523Y-104380952D01*
X125404761Y-104476190D01*
X125452380Y-104619047D01*
X125452380Y-104714285D01*
X125452380Y-103333333D02*
X125452380Y-103904761D01*
X125452380Y-103619047D02*
X124452380Y-103619047D01*
X124595238Y-103714285D01*
X124690476Y-103809523D01*
X124738095Y-103904761D01*
%TO.C,C0*%
X185833333Y-115357142D02*
X185785714Y-115404761D01*
X185642857Y-115452380D01*
X185547619Y-115452380D01*
X185404761Y-115404761D01*
X185309523Y-115309523D01*
X185261904Y-115214285D01*
X185214285Y-115023809D01*
X185214285Y-114880952D01*
X185261904Y-114690476D01*
X185309523Y-114595238D01*
X185404761Y-114500000D01*
X185547619Y-114452380D01*
X185642857Y-114452380D01*
X185785714Y-114500000D01*
X185833333Y-114547619D01*
X186452380Y-114452380D02*
X186547619Y-114452380D01*
X186642857Y-114500000D01*
X186690476Y-114547619D01*
X186738095Y-114642857D01*
X186785714Y-114833333D01*
X186785714Y-115071428D01*
X186738095Y-115261904D01*
X186690476Y-115357142D01*
X186642857Y-115404761D01*
X186547619Y-115452380D01*
X186452380Y-115452380D01*
X186357142Y-115404761D01*
X186309523Y-115357142D01*
X186261904Y-115261904D01*
X186214285Y-115071428D01*
X186214285Y-114833333D01*
X186261904Y-114642857D01*
X186309523Y-114547619D01*
X186357142Y-114500000D01*
X186452380Y-114452380D01*
%TO.C,R1*%
X135997840Y-113166666D02*
X135521650Y-113500000D01*
X135997840Y-113738095D02*
X134997840Y-113738095D01*
X134997840Y-113357142D01*
X135045460Y-113261904D01*
X135093079Y-113214285D01*
X135188317Y-113166666D01*
X135331174Y-113166666D01*
X135426412Y-113214285D01*
X135474031Y-113261904D01*
X135521650Y-113357142D01*
X135521650Y-113738095D01*
X135997840Y-112214285D02*
X135997840Y-112785714D01*
X135997840Y-112500000D02*
X134997840Y-112500000D01*
X135140698Y-112595238D01*
X135235936Y-112690476D01*
X135283555Y-112785714D01*
%TO.C,R8*%
X153816018Y-113166666D02*
X153339828Y-113500000D01*
X153816018Y-113738095D02*
X152816018Y-113738095D01*
X152816018Y-113357142D01*
X152863638Y-113261904D01*
X152911257Y-113214285D01*
X153006495Y-113166666D01*
X153149352Y-113166666D01*
X153244590Y-113214285D01*
X153292209Y-113261904D01*
X153339828Y-113357142D01*
X153339828Y-113738095D01*
X153244590Y-112595238D02*
X153196971Y-112690476D01*
X153149352Y-112738095D01*
X153054114Y-112785714D01*
X153006495Y-112785714D01*
X152911257Y-112738095D01*
X152863638Y-112690476D01*
X152816018Y-112595238D01*
X152816018Y-112404761D01*
X152863638Y-112309523D01*
X152911257Y-112261904D01*
X153006495Y-112214285D01*
X153054114Y-112214285D01*
X153149352Y-112261904D01*
X153196971Y-112309523D01*
X153244590Y-112404761D01*
X153244590Y-112595238D01*
X153292209Y-112690476D01*
X153339828Y-112738095D01*
X153435066Y-112785714D01*
X153625542Y-112785714D01*
X153720780Y-112738095D01*
X153768399Y-112690476D01*
X153816018Y-112595238D01*
X153816018Y-112404761D01*
X153768399Y-112309523D01*
X153720780Y-112261904D01*
X153625542Y-112214285D01*
X153435066Y-112214285D01*
X153339828Y-112261904D01*
X153292209Y-112309523D01*
X153244590Y-112404761D01*
%TO.C,J0*%
X192452380Y-114333333D02*
X193166666Y-114333333D01*
X193309523Y-114380952D01*
X193404761Y-114476190D01*
X193452380Y-114619047D01*
X193452380Y-114714285D01*
X192452380Y-113666666D02*
X192452380Y-113571428D01*
X192500000Y-113476190D01*
X192547619Y-113428571D01*
X192642857Y-113380952D01*
X192833333Y-113333333D01*
X193071428Y-113333333D01*
X193261904Y-113380952D01*
X193357142Y-113428571D01*
X193404761Y-113476190D01*
X193452380Y-113571428D01*
X193452380Y-113666666D01*
X193404761Y-113761904D01*
X193357142Y-113809523D01*
X193261904Y-113857142D01*
X193071428Y-113904761D01*
X192833333Y-113904761D01*
X192642857Y-113857142D01*
X192547619Y-113809523D01*
X192500000Y-113761904D01*
X192452380Y-113666666D01*
%TO.C,R9*%
X156361472Y-113166666D02*
X155885282Y-113500000D01*
X156361472Y-113738095D02*
X155361472Y-113738095D01*
X155361472Y-113357142D01*
X155409092Y-113261904D01*
X155456711Y-113214285D01*
X155551949Y-113166666D01*
X155694806Y-113166666D01*
X155790044Y-113214285D01*
X155837663Y-113261904D01*
X155885282Y-113357142D01*
X155885282Y-113738095D01*
X156361472Y-112690476D02*
X156361472Y-112500000D01*
X156313853Y-112404761D01*
X156266234Y-112357142D01*
X156123377Y-112261904D01*
X155932901Y-112214285D01*
X155551949Y-112214285D01*
X155456711Y-112261904D01*
X155409092Y-112309523D01*
X155361472Y-112404761D01*
X155361472Y-112595238D01*
X155409092Y-112690476D01*
X155456711Y-112738095D01*
X155551949Y-112785714D01*
X155790044Y-112785714D01*
X155885282Y-112738095D01*
X155932901Y-112690476D01*
X155980520Y-112595238D01*
X155980520Y-112404761D01*
X155932901Y-112309523D01*
X155885282Y-112261904D01*
X155790044Y-112214285D01*
%TO.C,R13*%
X185357142Y-108775713D02*
X185023809Y-108299523D01*
X184785714Y-108775713D02*
X184785714Y-107775713D01*
X185166666Y-107775713D01*
X185261904Y-107823333D01*
X185309523Y-107870952D01*
X185357142Y-107966190D01*
X185357142Y-108109047D01*
X185309523Y-108204285D01*
X185261904Y-108251904D01*
X185166666Y-108299523D01*
X184785714Y-108299523D01*
X186309523Y-108775713D02*
X185738095Y-108775713D01*
X186023809Y-108775713D02*
X186023809Y-107775713D01*
X185928571Y-107918571D01*
X185833333Y-108013809D01*
X185738095Y-108061428D01*
X186642857Y-107775713D02*
X187261904Y-107775713D01*
X186928571Y-108156666D01*
X187071428Y-108156666D01*
X187166666Y-108204285D01*
X187214285Y-108251904D01*
X187261904Y-108347142D01*
X187261904Y-108585237D01*
X187214285Y-108680475D01*
X187166666Y-108728094D01*
X187071428Y-108775713D01*
X186785714Y-108775713D01*
X186690476Y-108728094D01*
X186642857Y-108680475D01*
%TO.C,R12*%
X185357142Y-105452380D02*
X185023809Y-104976190D01*
X184785714Y-105452380D02*
X184785714Y-104452380D01*
X185166666Y-104452380D01*
X185261904Y-104500000D01*
X185309523Y-104547619D01*
X185357142Y-104642857D01*
X185357142Y-104785714D01*
X185309523Y-104880952D01*
X185261904Y-104928571D01*
X185166666Y-104976190D01*
X184785714Y-104976190D01*
X186309523Y-105452380D02*
X185738095Y-105452380D01*
X186023809Y-105452380D02*
X186023809Y-104452380D01*
X185928571Y-104595238D01*
X185833333Y-104690476D01*
X185738095Y-104738095D01*
X186690476Y-104547619D02*
X186738095Y-104500000D01*
X186833333Y-104452380D01*
X187071428Y-104452380D01*
X187166666Y-104500000D01*
X187214285Y-104547619D01*
X187261904Y-104642857D01*
X187261904Y-104738095D01*
X187214285Y-104880952D01*
X186642857Y-105452380D01*
X187261904Y-105452380D01*
%TO.C,R6*%
X148725110Y-113166666D02*
X148248920Y-113500000D01*
X148725110Y-113738095D02*
X147725110Y-113738095D01*
X147725110Y-113357142D01*
X147772730Y-113261904D01*
X147820349Y-113214285D01*
X147915587Y-113166666D01*
X148058444Y-113166666D01*
X148153682Y-113214285D01*
X148201301Y-113261904D01*
X148248920Y-113357142D01*
X148248920Y-113738095D01*
X147725110Y-112309523D02*
X147725110Y-112500000D01*
X147772730Y-112595238D01*
X147820349Y-112642857D01*
X147963206Y-112738095D01*
X148153682Y-112785714D01*
X148534634Y-112785714D01*
X148629872Y-112738095D01*
X148677491Y-112690476D01*
X148725110Y-112595238D01*
X148725110Y-112404761D01*
X148677491Y-112309523D01*
X148629872Y-112261904D01*
X148534634Y-112214285D01*
X148296539Y-112214285D01*
X148201301Y-112261904D01*
X148153682Y-112309523D01*
X148106063Y-112404761D01*
X148106063Y-112595238D01*
X148153682Y-112690476D01*
X148201301Y-112738095D01*
X148296539Y-112785714D01*
%TO.C,R5*%
X146179656Y-113166666D02*
X145703466Y-113500000D01*
X146179656Y-113738095D02*
X145179656Y-113738095D01*
X145179656Y-113357142D01*
X145227276Y-113261904D01*
X145274895Y-113214285D01*
X145370133Y-113166666D01*
X145512990Y-113166666D01*
X145608228Y-113214285D01*
X145655847Y-113261904D01*
X145703466Y-113357142D01*
X145703466Y-113738095D01*
X145179656Y-112261904D02*
X145179656Y-112738095D01*
X145655847Y-112785714D01*
X145608228Y-112738095D01*
X145560609Y-112642857D01*
X145560609Y-112404761D01*
X145608228Y-112309523D01*
X145655847Y-112261904D01*
X145751085Y-112214285D01*
X145989180Y-112214285D01*
X146084418Y-112261904D01*
X146132037Y-112309523D01*
X146179656Y-112404761D01*
X146179656Y-112642857D01*
X146132037Y-112738095D01*
X146084418Y-112785714D01*
%TO.C,R7*%
X151270564Y-113166666D02*
X150794374Y-113500000D01*
X151270564Y-113738095D02*
X150270564Y-113738095D01*
X150270564Y-113357142D01*
X150318184Y-113261904D01*
X150365803Y-113214285D01*
X150461041Y-113166666D01*
X150603898Y-113166666D01*
X150699136Y-113214285D01*
X150746755Y-113261904D01*
X150794374Y-113357142D01*
X150794374Y-113738095D01*
X150270564Y-112833333D02*
X150270564Y-112166666D01*
X151270564Y-112595238D01*
%TO.C,R10*%
X158906926Y-114119048D02*
X158430736Y-114452381D01*
X158906926Y-114690476D02*
X157906926Y-114690476D01*
X157906926Y-114309524D01*
X157954546Y-114214286D01*
X158002165Y-114166667D01*
X158097403Y-114119048D01*
X158240260Y-114119048D01*
X158335498Y-114166667D01*
X158383117Y-114214286D01*
X158430736Y-114309524D01*
X158430736Y-114690476D01*
X158906926Y-113166667D02*
X158906926Y-113738095D01*
X158906926Y-113452381D02*
X157906926Y-113452381D01*
X158049784Y-113547619D01*
X158145022Y-113642857D01*
X158192641Y-113738095D01*
X157906926Y-112547619D02*
X157906926Y-112452381D01*
X157954546Y-112357143D01*
X158002165Y-112309524D01*
X158097403Y-112261905D01*
X158287879Y-112214286D01*
X158525974Y-112214286D01*
X158716450Y-112261905D01*
X158811688Y-112309524D01*
X158859307Y-112357143D01*
X158906926Y-112452381D01*
X158906926Y-112547619D01*
X158859307Y-112642857D01*
X158811688Y-112690476D01*
X158716450Y-112738095D01*
X158525974Y-112785714D01*
X158287879Y-112785714D01*
X158097403Y-112738095D01*
X158002165Y-112690476D01*
X157954546Y-112642857D01*
X157906926Y-112547619D01*
%TO.C,R2*%
X138543294Y-113166666D02*
X138067104Y-113500000D01*
X138543294Y-113738095D02*
X137543294Y-113738095D01*
X137543294Y-113357142D01*
X137590914Y-113261904D01*
X137638533Y-113214285D01*
X137733771Y-113166666D01*
X137876628Y-113166666D01*
X137971866Y-113214285D01*
X138019485Y-113261904D01*
X138067104Y-113357142D01*
X138067104Y-113738095D01*
X137638533Y-112785714D02*
X137590914Y-112738095D01*
X137543294Y-112642857D01*
X137543294Y-112404761D01*
X137590914Y-112309523D01*
X137638533Y-112261904D01*
X137733771Y-112214285D01*
X137829009Y-112214285D01*
X137971866Y-112261904D01*
X138543294Y-112833333D01*
X138543294Y-112214285D01*
%TO.C,R3*%
X141088748Y-113166666D02*
X140612558Y-113500000D01*
X141088748Y-113738095D02*
X140088748Y-113738095D01*
X140088748Y-113357142D01*
X140136368Y-113261904D01*
X140183987Y-113214285D01*
X140279225Y-113166666D01*
X140422082Y-113166666D01*
X140517320Y-113214285D01*
X140564939Y-113261904D01*
X140612558Y-113357142D01*
X140612558Y-113738095D01*
X140088748Y-112833333D02*
X140088748Y-112214285D01*
X140469701Y-112547619D01*
X140469701Y-112404761D01*
X140517320Y-112309523D01*
X140564939Y-112261904D01*
X140660177Y-112214285D01*
X140898272Y-112214285D01*
X140993510Y-112261904D01*
X141041129Y-112309523D01*
X141088748Y-112404761D01*
X141088748Y-112690476D01*
X141041129Y-112785714D01*
X140993510Y-112833333D01*
%TO.C,R11*%
X161452380Y-114119048D02*
X160976190Y-114452381D01*
X161452380Y-114690476D02*
X160452380Y-114690476D01*
X160452380Y-114309524D01*
X160500000Y-114214286D01*
X160547619Y-114166667D01*
X160642857Y-114119048D01*
X160785714Y-114119048D01*
X160880952Y-114166667D01*
X160928571Y-114214286D01*
X160976190Y-114309524D01*
X160976190Y-114690476D01*
X161452380Y-113166667D02*
X161452380Y-113738095D01*
X161452380Y-113452381D02*
X160452380Y-113452381D01*
X160595238Y-113547619D01*
X160690476Y-113642857D01*
X160738095Y-113738095D01*
X161452380Y-112214286D02*
X161452380Y-112785714D01*
X161452380Y-112500000D02*
X160452380Y-112500000D01*
X160595238Y-112595238D01*
X160690476Y-112690476D01*
X160738095Y-112785714D01*
%TO.C,R0*%
X133452380Y-113166666D02*
X132976190Y-113500000D01*
X133452380Y-113738095D02*
X132452380Y-113738095D01*
X132452380Y-113357142D01*
X132500000Y-113261904D01*
X132547619Y-113214285D01*
X132642857Y-113166666D01*
X132785714Y-113166666D01*
X132880952Y-113214285D01*
X132928571Y-113261904D01*
X132976190Y-113357142D01*
X132976190Y-113738095D01*
X132452380Y-112547619D02*
X132452380Y-112452380D01*
X132500000Y-112357142D01*
X132547619Y-112309523D01*
X132642857Y-112261904D01*
X132833333Y-112214285D01*
X133071428Y-112214285D01*
X133261904Y-112261904D01*
X133357142Y-112309523D01*
X133404761Y-112357142D01*
X133452380Y-112452380D01*
X133452380Y-112547619D01*
X133404761Y-112642857D01*
X133357142Y-112690476D01*
X133261904Y-112738095D01*
X133071428Y-112785714D01*
X132833333Y-112785714D01*
X132642857Y-112738095D01*
X132547619Y-112690476D01*
X132500000Y-112642857D01*
X132452380Y-112547619D01*
D11*
%TO.C,J2*%
X134410000Y-103670000D02*
X162410000Y-103670000D01*
X133140000Y-106330000D02*
X131810000Y-106330000D01*
X162410000Y-106330000D02*
X162410000Y-103670000D01*
X134410000Y-106330000D02*
X162410000Y-106330000D01*
X131810000Y-106330000D02*
X131810000Y-105000000D01*
X134410000Y-106330000D02*
X134410000Y-103670000D01*
%TO.C,U1*%
X178522500Y-109000000D02*
X178522500Y-112870000D01*
X165725000Y-112870000D02*
X165725000Y-114675000D01*
X165477500Y-109000000D02*
X165477500Y-105130000D01*
X178522500Y-105130000D02*
X178275000Y-105130000D01*
X165477500Y-112870000D02*
X165725000Y-112870000D01*
X178522500Y-112870000D02*
X178275000Y-112870000D01*
X165477500Y-105130000D02*
X165725000Y-105130000D01*
X165477500Y-109000000D02*
X165477500Y-112870000D01*
X178522500Y-109000000D02*
X178522500Y-105130000D01*
%TO.C,R14*%
X182772936Y-111381666D02*
X183227064Y-111381666D01*
X182772936Y-109911666D02*
X183227064Y-109911666D01*
%TO.C,R4*%
X143916822Y-109772936D02*
X143916822Y-110227064D01*
X142446822Y-109772936D02*
X142446822Y-110227064D01*
%TO.C,J1*%
X126285000Y-105890000D02*
X128785000Y-105890000D01*
X128785000Y-106940000D02*
X129775000Y-106940000D01*
X128785000Y-105890000D02*
X128785000Y-106940000D01*
X124315000Y-107060000D02*
X124315000Y-110940000D01*
X126285000Y-112110000D02*
X128785000Y-112110000D01*
X128785000Y-112110000D02*
X128785000Y-111060000D01*
%TO.C,C0*%
X183223752Y-113265000D02*
X182701248Y-113265000D01*
X183223752Y-114735000D02*
X182701248Y-114735000D01*
%TO.C,R1*%
X136280460Y-109772936D02*
X136280460Y-110227064D01*
X134810460Y-109772936D02*
X134810460Y-110227064D01*
%TO.C,R8*%
X152628638Y-109772936D02*
X152628638Y-110227064D01*
X154098638Y-109772936D02*
X154098638Y-110227064D01*
%TO.C,J0*%
X193685000Y-110940000D02*
X193685000Y-107060000D01*
X191715000Y-112110000D02*
X189215000Y-112110000D01*
X191715000Y-105890000D02*
X189215000Y-105890000D01*
X189215000Y-111060000D02*
X188225000Y-111060000D01*
X189215000Y-112110000D02*
X189215000Y-111060000D01*
X189215000Y-105890000D02*
X189215000Y-106940000D01*
%TO.C,R9*%
X156644092Y-109772936D02*
X156644092Y-110227064D01*
X155174092Y-109772936D02*
X155174092Y-110227064D01*
%TO.C,R13*%
X182772936Y-106588333D02*
X183227064Y-106588333D01*
X182772936Y-108058333D02*
X183227064Y-108058333D01*
%TO.C,R12*%
X182772936Y-104735000D02*
X183227064Y-104735000D01*
X182772936Y-103265000D02*
X183227064Y-103265000D01*
%TO.C,R6*%
X149007730Y-109772936D02*
X149007730Y-110227064D01*
X147537730Y-109772936D02*
X147537730Y-110227064D01*
%TO.C,R5*%
X144992276Y-109772936D02*
X144992276Y-110227064D01*
X146462276Y-109772936D02*
X146462276Y-110227064D01*
%TO.C,R7*%
X151553184Y-109772936D02*
X151553184Y-110227064D01*
X150083184Y-109772936D02*
X150083184Y-110227064D01*
%TO.C,R10*%
X157719546Y-109772936D02*
X157719546Y-110227064D01*
X159189546Y-109772936D02*
X159189546Y-110227064D01*
%TO.C,R2*%
X137355914Y-109772936D02*
X137355914Y-110227064D01*
X138825914Y-109772936D02*
X138825914Y-110227064D01*
%TO.C,R3*%
X139901368Y-109772936D02*
X139901368Y-110227064D01*
X141371368Y-109772936D02*
X141371368Y-110227064D01*
%TO.C,R11*%
X161735000Y-109772936D02*
X161735000Y-110227064D01*
X160265000Y-109772936D02*
X160265000Y-110227064D01*
%TO.C,R0*%
X132265000Y-109772936D02*
X132265000Y-110227064D01*
X133735000Y-109772936D02*
X133735000Y-110227064D01*
%TD*%
M02*
